{"asset":{"version":"2.0","generator":"Unity 6000.0.33f1 glTFast 6.10.3"},"nodes":[{"name":"japanes island","mesh":0,"translation":[-18.64,0,0]}],"buffers":[{"uri":"japanes island.bin","byteLength":64352}],"bufferViews":[{"buffer":0,"byteLength":3630,"target":34963},{"buffer":0,"byteLength":60720,"byteOffset":3632,"byteStride":48,"target":34962}],"accessors":[{"bufferView":1,"componentType":5126,"count":1265,"type":"VEC3","max":[12.5292835,4.61697626,16.1756649],"min":[-12.5292835,0,-16.1756649]},{"bufferView":1,"componentType":5126,"count":1265,"type":"VEC3","byteOffset":12},{"bufferView":1,"componentType":5126,"count":1265,"type":"VEC4","byteOffset":24},{"bufferView":1,"componentType":5126,"count":1265,"type":"VEC2","byteOffset":40},{"bufferView":0,"componentType":5123,"count":1815,"type":"SCALAR"}],"images":[{"name":"texture main.jpg","uri":"texture main.jpg","mimeType":"image/jpeg"}],"materials":[{"name":"mat main","pbrMetallicRoughness":{"metallicFactor":0,"baseColorTexture":{"index":0}}}],"meshes":[{"name":"japanes island","primitives":[{"attributes":{"POSITION":0,"NORMAL":1,"TANGENT":2,"TEXCOORD_0":3},"indices":4,"material":0}]}],"scene":0,"scenes":[{"name":"japanes island","nodes":[0]}],"textures":[{"source":0}]}