{"asset":{"version":"2.0","generator":"Unity 6000.0.33f1 glTFast 6.10.3"},"nodes":[{"name":"Bone.003_L_end","translation":[0,0.275451362,0]},{"name":"Bone.003_L","children":[0],"translation":[0.0441788323,0.5900604,1.84179445E-08],"rotation":[0.01053914,0.001339951,-0.102606229,0.9946653],"scale":[0.99999994,0.99999994,1]},{"name":"Bone.003_R_end","translation":[0,0.275451362,0]},{"name":"Bone.003_R","children":[2],"translation":[-0.0441788323,0.5900604,-2.64816435E-09],"rotation":[0.0222657714,-0.002075296,0.105468825,0.994171143],"scale":[1,0.99999994,1]},{"name":"MetalHelmet","mesh":0,"translation":[0,0.307999939,0],"rotation":[0,-1.192093E-07,2.48689958E-14,1]},{"name":"Bone","children":[1,3,4],"rotation":[0.7071068,8.429372E-08,8.42937E-08,0.7071067]},{"name":"Rig","children":[5],"rotation":[-0.7071068,0,0,0.7071067]},{"name":"Slime_01","mesh":1,"scale":[0.3,0.3,0.3],"skin":0},{"name":"Slime_01_MeltalHelmet","children":[6,7],"translation":[-2.018,1.61230564E-05,-0.000268801232],"rotation":[0.000448920531,-0.000748233753,-0.005096027,0.999986649],"scale":[1,1,0.99999994]}],"extensionsRequired":["KHR_materials_unlit"],"extensionsUsed":["KHR_materials_unlit"],"buffers":[{"uri":"Slime_01.bin","byteLength":41976}],"bufferViews":[{"buffer":0,"byteLength":192},{"buffer":0,"byteLength":1194,"byteOffset":192,"target":34963},{"buffer":0,"byteLength":6144,"byteOffset":1386,"target":34963},{"buffer":0,"byteLength":5376,"byteOffset":7532,"byteStride":48,"target":34962},{"buffer":0,"byteLength":22360,"byteOffset":12908,"byteStride":40,"target":34962},{"buffer":0,"byteLength":4472,"byteOffset":35268,"byteStride":8,"target":34962},{"buffer":0,"byteLength":2236,"byteOffset":39740,"byteStride":4,"target":34962}],"accessors":[{"bufferView":3,"componentType":5126,"count":112,"type":"VEC3","max":[0.337671578,0.300395668,0.308691055],"min":[-0.337671578,-0.111048132,-0.3170425]},{"bufferView":3,"componentType":5126,"count":112,"type":"VEC3","byteOffset":12},{"bufferView":3,"componentType":5126,"count":112,"type":"VEC4","byteOffset":24},{"bufferView":3,"componentType":5126,"count":112,"type":"VEC2","byteOffset":40},{"bufferView":1,"componentType":5123,"count":597,"type":"SCALAR"},{"bufferView":4,"componentType":5126,"count":559,"type":"VEC3","max":[0.299999952,0.4900007,0.282604933],"min":[-0.299999952,0,-0.281101]},{"bufferView":4,"componentType":5126,"count":559,"type":"VEC3","byteOffset":12},{"bufferView":4,"componentType":5126,"count":559,"type":"VEC4","byteOffset":24},{"bufferView":5,"componentType":5126,"count":559,"type":"VEC2"},{"bufferView":6,"componentType":5123,"count":559,"type":"SCALAR"},{"bufferView":0,"componentType":5126,"count":3,"type":"MAT4"},{"bufferView":2,"componentType":5123,"count":2880,"type":"SCALAR"},{"bufferView":2,"componentType":5123,"count":192,"type":"SCALAR","byteOffset":5760}],"images":[{"name":"ProtectiveHat.jpg","uri":"ProtectiveHat.jpg","mimeType":"image/jpeg"},{"name":"Face_03.png","uri":"Face_03.png","mimeType":"image/png"}],"materials":[{"name":"Hat","pbrMetallicRoughness":{"metallicFactor":0,"baseColorTexture":{"index":0}}},{"name":"Slime1_White","pbrMetallicRoughness":{"baseColorFactor":[0.707756639,0.707756639,0.707756639,1],"metallicFactor":0}},{"name":"Face 2","pbrMetallicRoughness":{"metallicFactor":0,"baseColorTexture":{"index":1}},"alphaMode":"BLEND","extensions":{"KHR_materials_unlit":{}}}],"meshes":[{"name":"MetalHelmet","primitives":[{"attributes":{"POSITION":0,"NORMAL":1,"TANGENT":2,"TEXCOORD_0":3},"indices":4,"material":0}]},{"name":"Slime_01","primitives":[{"attributes":{"POSITION":5,"NORMAL":6,"TANGENT":7,"TEXCOORD_0":8,"JOINTS_0":9},"indices":11,"material":1},{"attributes":{"POSITION":5,"NORMAL":6,"TANGENT":7,"TEXCOORD_0":8,"JOINTS_0":9},"indices":12,"material":2}]}],"scene":0,"scenes":[{"name":"Slime_01_MeltalHelmet","nodes":[8]}],"skins":[{"inverseBindMatrices":10,"joints":[5,1,3]}],"textures":[{"source":0},{"source":1}]}